# xmcd
#
# Track frame offsets:
#	150
#	11218
#	25233
#	37683
#	53393
#	71263
#	89010
#	102793
#	117968
#	134640
#
# Disc length: 2003 seconds
#
# Revision: 2
# Processed by: cddbd v1.5.2PL0 Copyright (c) Steve Scherf et al.
# Submitted via: audiograbber 1.83.01
#
DISCID=7a07d10a
DTITLE=Eddy Raven - The Best of Eddy Raven
DYEAR=1988
DGENRE=Country
TTITLE0=I Got Mexico
TTITLE1=Operator, Operator
TTITLE2=I'm Gonna Get You
TTITLE3=Shine, Shine, Shine
TTITLE4='Til You Cry
TTITLE5=Joe Knows How to Live
TTITLE6=Right Hand Man
TTITLE7=Sometimes a Lady
TTITLE8=Go Against the Wind
TTITLE9=You Should Have Been Gone By Now
EXTD=
EXTT0=
EXTT1=
EXTT2=
EXTT3=
EXTT4=
EXTT5=
EXTT6=
EXTT7=
EXTT8=
EXTT9=
PLAYORDER=
